<?xml version="1.0" encoding="UTF-8"?>
<svg id="Layer_1" data-name="Layer 1" xmlns="http://www.w3.org/2000/svg" viewBox="0 0 1080 1080">
  <defs>
    <style>
      .cls-1 {
        fill: #fff;
      }
    </style>
  </defs>
  <g>
    <path class="cls-1" d="M311.3,375.1c-12.87.22-20.89-.88-24.04-3.31-2.36-2.65-.53-5.73,5.52-9.26,8.67-4.63,28.7-9.7,60.1-15.22,31.39-5.51,68.24-10.47,110.54-14.89,42.3-4.41,84.2-7.28,125.71-8.6,41.51-1.32,76.78-.22,105.81,3.31,29.03,3.53,45.91,10.37,50.64,20.51,1.58,3.75,1.05,7.72-1.58,11.91-.53.88-1.25,1.44-2.17,1.65-.92.22-1.91.22-2.95,0-1.05-.44-1.71-1.1-1.97-1.99-.26-.88-.13-1.65.39-2.32,1.58-2.86,1.97-5.29,1.18-7.28-4.2-8.6-20.3-14.28-48.28-17.03-27.98-2.75-62.2-3.36-102.66-1.82-40.46,1.54-81.38,4.36-122.76,8.44-41.38,4.08-77.44,8.71-108.18,13.89-30.74,5.18-50.58,10.09-59.51,14.72-.53,1.11.85,1.77,4.14,1.99,3.28.22,7.81.44,13.6.66,13.92-.22,30.28,1.21,49.06,4.3,18.78,3.09,33.76,10.64,44.93,22.66,11.16,12.02,12.41,31.48,3.74,58.39,14.19-23.37,27.59-44.27,40.2-62.69,12.61-18.41,22.33-31.48,29.16-39.2.52-.66,1.31-1.05,2.36-1.16,1.05-.11,1.97.06,2.76.5,1.05.66,1.64,1.44,1.77,2.31.13.89-.2,1.65-.99,2.32-7.88,9.05-19.84,25.36-35.86,48.96-16.03,23.6-32.71,49.62-50.05,78.07,18.13-2.43,37.24-4.52,57.34-6.29,20.1-1.76,37.18-2.37,51.23-1.82,14.05.55,21.09,3.26,21.09,8.11,0,1.32-.27,2.26-.79,2.81-.53.55-1.05.66-1.58.33-.53-.33-.79-1.05-.79-2.15-.53-3.97-7.95-5.9-22.27-5.79-14.32.11-31.47,1.27-51.43,3.47-19.97,2.21-38.76,4.63-56.35,7.28-18.13,29.99-32.78,56.84-43.94,80.55-11.17,23.71-15.04,38.42-11.63,44.16.26.66.26,1.21,0,1.65-.26.44-.73.71-1.38.83-.66.11-1.25-.06-1.77-.5-3.94-5.95-1.32-19.73,7.88-41.35,9.19-21.61,21.8-46.42,37.83-74.43,0-.22.13-.44.39-.66,1.83-3.09,3.55-6.17,5.12-9.26-9.99,1.55-18.07,2.81-24.24,3.8-6.18.99-9.4,1.6-9.66,1.82-1.58,0-2.7-.44-3.35-1.32-.66-.88-.73-1.82-.2-2.81.52-.99,1.58-1.71,3.15-2.15h.39c1.05,0,4.93-.55,11.63-1.65,6.7-1.1,15.3-2.32,25.81-3.64.26-.66.65-1.21,1.18-1.65,19.7-36.17,23.25-63.29,10.64-81.38-12.61-18.08-44.27-27.34-94.98-27.79Z"/>
    <path class="cls-1" d="M341.06,619.18c-.76,0-1.47-.27-2.09-.78l-.21-.23c-4.2-6.34-1.65-20.2,7.79-42.37,9.14-21.5,21.86-46.51,37.78-74.36.07-.3.23-.65.59-1,1.44-2.42,2.79-4.83,4.03-7.18-9.02,1.4-16.4,2.55-22.13,3.48-7.08,1.14-8.82,1.54-9.25,1.68l-.19.16h-.39c-1.94,0-3.36-.59-4.22-1.76-.9-1.2-1-2.61-.28-3.96.66-1.25,1.95-2.16,3.81-2.68l.69-.04c.57,0,2.81-.21,11.45-1.64,6.58-1.08,15.08-2.28,25.26-3.57.27-.5.63-.95,1.05-1.34,19.32-35.52,22.89-62.46,10.61-80.07-12.34-17.69-44-26.88-94.09-27.33-13.24.23-21.32-.93-24.7-3.53-1.16-1.28-1.58-2.53-1.37-3.85.36-2.31,2.65-4.67,7-7.2,8.76-4.68,29.09-9.84,60.46-15.35,31.29-5.49,68.51-10.5,110.62-14.9,42.15-4.39,84.47-7.29,125.79-8.61,41.34-1.31,77-.2,105.98,3.32,29.7,3.61,46.54,10.52,51.49,21.13,1.73,4.11,1.17,8.45-1.64,12.94-.68,1.13-1.63,1.85-2.83,2.13-1.08.26-2.23.26-3.43,0-1.56-.63-2.43-1.53-2.78-2.74-.36-1.22-.16-2.36.59-3.29,1.3-2.4,1.68-4.54,1.02-6.21-3.98-8.12-19.93-13.65-47.38-16.36-27.79-2.74-62.28-3.35-102.51-1.81-40.24,1.54-81.53,4.37-122.69,8.43-41.16,4.06-77.53,8.73-108.1,13.88-29.45,4.97-49.03,9.72-58.24,14.14.46.15,1.29.32,2.77.42,3.28.22,7.85.44,13.57.66,13.89-.18,30.45,1.24,49.2,4.31,18.94,3.12,34.26,10.85,45.54,22.99,10.27,11.06,12.37,28.39,6.29,51.59,12.6-20.55,24.69-39.27,35.98-55.76,12.6-18.39,22.44-31.62,29.25-39.3.66-.85,1.71-1.37,3.05-1.52,1.27-.13,2.42.08,3.4.63,1.36.86,2.13,1.89,2.31,3.09.13.89,0,2.17-1.36,3.31-7.73,8.89-19.77,25.33-35.66,48.74-15.59,22.96-32.02,48.55-48.84,76.09,17.37-2.29,35.91-4.3,55.15-5.99,20.03-1.76,37.31-2.37,51.37-1.83,14.89.59,22.12,3.59,22.12,9.19,0,1.63-.36,2.79-1.09,3.56-1.26,1.32-2.47.79-2.93.5-.86-.53-1.29-1.57-1.29-3.06-.24-1.73-3.22-4.81-21.18-4.71-14.22.11-31.49,1.28-51.32,3.47-19.73,2.18-38.51,4.6-55.81,7.2-17.91,29.66-32.59,56.57-43.63,80.01-13.64,28.96-13.88,39.45-11.67,43.15.46,1.14.44,2.01,0,2.75-.3.5-.91,1.13-2.13,1.34-.19.03-.38.05-.57.05ZM340.48,616.83c.24.17.49.23.79.17.32-.06.54-.16.63-.32.09-.16,0-.47-.08-.7-3.57-5.96.22-20.74,11.65-45.01,11.12-23.62,25.93-50.75,43.99-80.65l.26-.43.5-.07c17.47-2.63,36.44-5.08,56.4-7.28,19.9-2.2,37.24-3.37,51.54-3.48,15.29-.07,22.72,2.02,23.34,6.72.01.98.19,1.32.29,1.38-.01.03.07,0,.23-.16.18-.19.49-.71.49-2.06,0-4.08-6.93-6.51-20.05-7.03-13.97-.55-31.16.07-51.09,1.82-20.04,1.76-39.31,3.87-57.29,6.28l-2.24.3,1.18-1.93c17.25-28.31,34.1-54.59,50.08-78.12,15.94-23.48,28.04-39.99,35.94-49.06.75-.65.78-1.09.73-1.45-.08-.55-.52-1.07-1.28-1.56-.54-.3-1.24-.41-2.07-.34-.75.08-1.29.33-1.63.75-6.79,7.67-16.57,20.82-29.12,39.14-12.53,18.3-26.04,39.37-40.16,62.64l-4.77,7.86,2.82-8.75c8.5-26.38,7.32-45.66-3.51-57.32-10.95-11.78-25.86-19.29-44.31-22.33-18.62-3.06-35.07-4.51-48.87-4.28-5.8-.22-10.38-.44-13.69-.66-2.92-.19-4.41-.71-5-1.72-.32-.55-.33-1.19-.03-1.81l.16-.33.32-.17c8.98-4.66,29.11-9.64,59.82-14.83,30.62-5.16,67.04-9.83,108.25-13.9,41.21-4.06,82.53-6.9,122.82-8.44,40.33-1.53,74.92-.92,102.81,1.82,28.65,2.83,44.72,8.59,49.14,17.64.94,2.37.53,5.13-1.21,8.27-.31.41-.51.79-.31,1.49.17.56.61.99,1.35,1.3.7.12,1.53.13,2.29-.05.63-.15,1.11-.52,1.49-1.16,2.46-3.93,2.95-7.5,1.51-10.93-4.52-9.7-21.28-16.39-49.78-19.86-28.87-3.5-64.41-4.62-105.65-3.3-41.26,1.31-83.53,4.2-125.64,8.59-42.06,4.39-79.23,9.39-110.47,14.88-31.14,5.47-51.25,10.55-59.78,15.11-4.57,2.67-5.74,4.55-5.92,5.65-.11.67.12,1.29.7,1.94,1.87,1.42,7.55,3.23,23.22,2.95h.03c50.84.45,83.09,9.95,95.85,28.25,12.81,18.36,9.25,46.12-10.58,82.51l-.25.31c-.4.33-.68.73-.87,1.22l-.23.6-.64.08c-10.42,1.31-19.09,2.54-25.77,3.63-6.8,1.12-10.66,1.67-11.8,1.67h-.24c-1.2.36-1.99.89-2.35,1.57-.33.62-.3,1.12.11,1.66.41.56,1.17.85,2.27.89.75-.26,2.83-.7,9.7-1.8,6.17-.99,14.25-2.26,24.24-3.8l2.09-.32-.96,1.88c-1.54,3.03-3.28,6.17-5.16,9.32l-.24.28s0,0,0,0v.12l-.14.25c-15.94,27.85-28.64,52.85-37.78,74.32-8.93,20.98-11.64,34.49-8.07,40.19Z"/>
  </g>
  <g>
    <path class="cls-1" d="M371.19,514.4l-47.66-.26c18.08,1.56,80.37,5.86,92.21,12.89,11.83,7.03,20.12,16.53,24.86,28.51,2.58,6.6,4.04,13.84,4.36,21.74.32,7.9-.48,16.19-2.42,24.86-3.66,15.97-10.65,31.72-20.98,47.25-10.33,15.54-23.57,30.59-39.7,45.17-8.18,7.29-17.27,14.23-27.28,20.83-10.01,6.59-20.39,12.54-31.15,17.84-10.76,5.29-21.63,9.89-32.6,13.8-10.98,3.91-21.63,6.81-31.96,8.72-2.58.52-5.49.91-8.72,1.17-3.23.26-6.46.43-9.68.52-3.23.09-6.29.04-9.2-.13-2.9-.17-5.33-.43-7.26-.78-1.72-.35-3.34-.74-4.84-1.17-1.51-.44-2.58-.83-3.23-1.17-2.15-.87-4.41-2.26-6.78-4.17-2.37-1.91-4.09-3.73-5.16-5.47-.86-1.39-1.4-2.6-1.61-3.64-.22-1.04-.32-2.95-.32-5.73,0-3.64.59-6.86,1.77-9.63,1.18-2.78,3.28-6.16,6.29-10.15,3.23-4.16,8.82-9.37,16.79-15.62,7.96-6.25,17.11-12.41,27.44-18.49,3.23-1.91,5.38-3.29,6.46-4.16,1.07-.87,1.83-1.91,2.26-3.12.43-.69,1.4-2.78,2.91-6.25,1.5-3.47,3.23-7.29,5.16-11.46,4.3-9.72,8.02-18.36,11.14-25.91,3.12-7.55,6.18-15.75,9.2-24.61,1.5-4.34,2.79-8.07,3.87-11.19,1.07-3.13,1.94-5.86,2.58-8.2.64-2.34,1.18-4.43,1.61-6.25.43-1.82.75-3.69.97-5.6.65-7.64,2.69-9.8,6.13-6.51,1.07,1.04,1.24,3.91.48,8.59-.76,4.69-2.85,12.67-6.3,23.95-.43,1.56-1.02,3.52-1.77,5.86-.76,2.34-1.51,4.86-2.26,7.55-.76,2.69-1.56,5.51-2.42,8.46-.86,2.95-1.61,5.73-2.26,8.33-1.51,5.21-3.02,10.41-4.52,15.62-1.51,5.21-2.58,8.77-3.23,10.67-.64,2.08-1.24,3.91-1.77,5.47-.54,1.56-.81,2.43-.81,2.61,0,.7,1.4.35,4.2-1.04,1.72-.87,3.92-1.86,6.62-3,2.69-1.13,5.54-2.3,8.56-3.52,3.01-1.21,5.86-2.3,8.55-3.25,2.69-.95,4.89-1.69,6.62-2.21,2.36-.87,4.08-1.43,5.16-1.69,1.07-.26,1.83-.21,2.26.13,1.5,1.22,0,2.6-4.52,4.17-1.94.7-4.25,1.56-6.94,2.6-2.69,1.04-5.49,2.13-8.39,3.25-2.9,1.13-5.76,2.3-8.55,3.52-2.8,1.22-5.28,2.34-7.43,3.38-4.31,1.91-6.94,3.21-7.91,3.91-.97.7-1.67,1.74-2.1,3.13-.86,2.78-1.89,5.69-3.07,8.72-1.18,3.04-2.42,5.86-3.71,8.46-1.29,2.61-2.42,4.82-3.39,6.64-.97,1.82-1.77,3-2.42,3.52-2.15,1.39-4.2,1.3-6.13-.26-.64-.52-1.08-1.17-1.29-1.95-.22-.78-.32-2.13-.32-4.04,0-1.39.11-2.9.32-4.55.21-1.65.43-2.91.64-3.78.21-1.04.37-1.95.48-2.73.11-.78.05-1.26-.16-1.43-4.52,2.78-8.23,5.17-11.14,7.16-2.9,2-5.92,4.12-9.04,6.38-3.12,2.26-5.65,4.17-7.59,5.73-6.67,5.03-11.78,9.67-15.33,13.93-3.55,4.25-5.97,8.55-7.26,12.89-.86,2.43-1.29,4.3-1.29,5.6s.43,2.9,1.29,4.82c1.5,4.51,5.54,7.85,12.1,10.02,6.56,2.17,14.69,2.82,24.37,1.95,14.85-1.39,31.2-5.51,49.07-12.37,17.86-6.86,35.62-16.01,53.26-27.47,4.08-2.6,8.39-5.64,12.91-9.11,4.52-3.48,8.98-7.12,13.4-10.94,4.41-3.81,8.66-7.72,12.75-11.71,4.08-3.99,7.75-7.81,10.97-11.46,5.38-6.07,10.65-13.02,15.82-20.83,5.16-7.81,9.25-15.1,12.27-21.87.86-1.91,1.77-4.16,2.74-6.77.97-2.6,1.88-5.25,2.74-7.94.86-2.69,1.61-5.29,2.26-7.81.64-2.51,1.18-4.82,1.61-6.9,1.29-6.42,1.67-13.23,1.13-20.44-.54-7.2-1.77-13.32-3.71-18.36-6.03-14.06-16.9-24.12-32.6-30.2"/>
    <path class="cls-1" d="M237.33,758.57c-2.11,0-4.16-.06-6.14-.17-2.94-.18-5.43-.44-7.39-.79-1.75-.36-3.41-.76-4.95-1.2-1.59-.46-2.72-.87-3.44-1.26-2.14-.86-4.52-2.32-6.95-4.28-2.45-1.98-4.27-3.91-5.4-5.74-.94-1.52-1.52-2.83-1.75-4-.23-1.11-.34-3.05-.34-5.94,0-3.78.63-7.16,1.86-10.06,1.21-2.85,3.37-6.34,6.43-10.38,3.28-4.23,8.99-9.55,16.98-15.82,7.93-6.23,17.2-12.47,27.56-18.57,3.16-1.87,5.29-3.24,6.33-4.08.92-.74,1.55-1.61,1.92-2.65l.1-.21c.27-.44.99-1.86,2.83-6.11,1.48-3.41,3.22-7.28,5.18-11.48,4.28-9.66,8.02-18.37,11.12-25.86,3.1-7.5,6.18-15.76,9.18-24.54l3.88-11.2c1.09-3.18,1.93-5.85,2.56-8.14.64-2.33,1.17-4.4,1.61-6.21.42-1.77.73-3.61.95-5.47.44-5.25,1.55-8.05,3.48-8.78,1.32-.5,2.83.04,4.47,1.61,1.38,1.34,1.63,4.37.8,9.54-.76,4.73-2.89,12.84-6.33,24.1-.43,1.55-1.02,3.52-1.78,5.87-.74,2.28-1.47,4.73-2.25,7.51-.76,2.7-1.57,5.52-2.42,8.47-.84,2.87-1.59,5.66-2.25,8.29l-4.53,15.66c-1.55,5.36-2.61,8.86-3.24,10.72-.64,2.07-1.24,3.9-1.78,5.47-.19.54-.33.95-.43,1.28.5-.18,1.24-.49,2.32-1.03,1.72-.87,3.91-1.86,6.68-3.02,2.69-1.13,5.55-2.3,8.57-3.52,3.04-1.22,5.93-2.32,8.6-3.27,2.82-1,5-1.73,6.67-2.23,2.38-.87,4.1-1.44,5.22-1.71,1.43-.34,2.47-.23,3.19.34,1,.81,1.02,1.68.94,2.13-.25,1.42-1.98,2.59-5.78,3.91-1.92.69-4.22,1.55-6.9,2.59l-8.39,3.25c-2.9,1.13-5.77,2.31-8.51,3.5-2.87,1.25-5.28,2.35-7.39,3.36-5.29,2.35-7.13,3.37-7.75,3.81-.78.56-1.33,1.4-1.7,2.57-.86,2.77-1.9,5.73-3.09,8.8-1.19,3.06-2.46,5.94-3.75,8.55-1.3,2.61-2.43,4.84-3.4,6.66-1.06,2-1.92,3.23-2.7,3.85-2.63,1.7-5.19,1.59-7.49-.26-.83-.67-1.39-1.51-1.65-2.51-.24-.87-.36-2.29-.36-4.32,0-1.43.11-3.01.33-4.7.21-1.66.44-2.97.67-3.9.15-.72.27-1.4.37-2.02-3.77,2.34-6.97,4.41-9.53,6.17-2.9,1.99-5.91,4.11-9.02,6.36-3.05,2.21-5.59,4.12-7.54,5.69-6.61,4.98-11.71,9.61-15.18,13.78-3.44,4.12-5.82,8.33-7.06,12.5-.83,2.35-1.25,4.11-1.25,5.29s.4,2.62,1.2,4.37c1.42,4.25,5.27,7.4,11.46,9.44,6.39,2.11,14.44,2.75,23.94,1.9,14.67-1.37,31.09-5.51,48.78-12.3,17.72-6.8,35.57-16.01,53.06-27.36,4.06-2.59,8.37-5.63,12.84-9.06,4.53-3.48,9.02-7.15,13.35-10.9,4.37-3.78,8.65-7.71,12.7-11.67,4.08-3.99,7.76-7.83,10.92-11.4,5.32-6.01,10.62-12.98,15.73-20.71,5.1-7.71,9.2-15.02,12.18-21.71.86-1.91,1.77-4.16,2.72-6.71.95-2.57,1.87-5.22,2.73-7.89.86-2.7,1.62-5.31,2.24-7.75.63-2.47,1.17-4.77,1.6-6.85,1.26-6.27,1.64-13.04,1.11-20.14-.53-7.07-1.75-13.14-3.64-18.05-5.86-13.68-16.63-23.64-31.99-29.58l.78-2.01c15.92,6.16,27.09,16.52,33.21,30.78,1.98,5.14,3.25,11.42,3.8,18.7.54,7.29.15,14.26-1.15,20.73-.44,2.12-.98,4.46-1.63,6.96-.64,2.48-1.4,5.13-2.28,7.87-.86,2.7-1.79,5.39-2.76,7.99-.97,2.59-1.9,4.89-2.77,6.84-3.03,6.8-7.19,14.21-12.35,22.02-5.17,7.81-10.52,14.86-15.91,20.95-3.2,3.61-6.91,7.49-11.03,11.51-4.09,3.99-8.39,7.95-12.8,11.76-4.36,3.78-8.88,7.47-13.44,10.98-4.52,3.47-8.89,6.55-12.99,9.17-17.61,11.43-35.6,20.71-53.46,27.56-17.87,6.86-34.48,11.04-49.35,12.44-9.79.87-18.14.2-24.81-2-6.88-2.27-11.18-5.88-12.79-10.71-.89-1.96-1.35-3.68-1.35-5.16s.44-3.4,1.35-5.96c1.31-4.41,3.82-8.87,7.45-13.22,3.58-4.29,8.8-9.04,15.51-14.1,1.95-1.57,4.52-3.51,7.6-5.74,3.12-2.26,6.15-4.39,9.06-6.39,2.93-2.01,6.7-4.43,11.18-7.19l.66-.4.59.49c.7.57.66,1.59.55,2.41-.12.81-.28,1.74-.5,2.8-.22.89-.43,2.12-.63,3.7-.21,1.6-.32,3.08-.32,4.42,0,2.25.15,3.28.29,3.75.15.56.45,1.02.93,1.4,1.56,1.26,3.11,1.32,4.87.19.2-.17.88-.9,2.05-3.12.96-1.81,2.09-4.02,3.38-6.61,1.27-2.55,2.5-5.37,3.67-8.37,1.17-3.02,2.2-5.93,3.04-8.65.5-1.61,1.34-2.85,2.5-3.68,1.04-.74,3.69-2.06,8.1-4.02,2.1-1.02,4.54-2.13,7.43-3.39,2.77-1.2,5.66-2.39,8.59-3.53l8.39-3.26c2.7-1.04,5.02-1.91,6.96-2.61,3.46-1.2,4.2-1.98,4.34-2.2-.03-.02-.07-.06-.14-.11h0s-.29-.17-1.33.08c-1.02.25-2.72.81-5.05,1.66-1.69.51-3.84,1.23-6.63,2.22-2.64.94-5.5,2.03-8.51,3.24-3.01,1.21-5.86,2.38-8.54,3.51-2.73,1.15-4.87,2.12-6.55,2.96-3.33,1.65-4.39,1.72-5.11,1.27-.41-.26-.65-.69-.65-1.19,0-.22,0-.45.87-2.96.53-1.55,1.12-3.36,1.76-5.43.63-1.85,1.68-5.33,3.22-10.66l4.52-15.62c.65-2.62,1.42-5.44,2.26-8.33.86-2.94,1.66-5.76,2.42-8.45.79-2.8,1.53-5.29,2.27-7.59.75-2.32,1.33-4.26,1.76-5.82,3.42-11.2,5.52-19.21,6.27-23.84.96-6,.11-7.37-.17-7.64-.94-.9-1.75-1.32-2.21-1.15-.36.14-1.59,1.05-2.1,6.97-.22,1.97-.56,3.9-.99,5.75-.44,1.84-.98,3.93-1.63,6.29-.64,2.33-1.49,5.04-2.6,8.26l-3.88,11.2c-3.01,8.82-6.11,17.12-9.22,24.66-3.1,7.51-6.86,16.23-11.15,25.93-1.95,4.2-3.69,8.05-5.16,11.45-1.93,4.44-2.6,5.75-2.92,6.29-.51,1.36-1.37,2.54-2.56,3.5-1.13.91-3.28,2.3-6.58,4.25-10.27,6.04-19.46,12.24-27.32,18.41-7.85,6.16-13.44,11.35-16.6,15.43-2.94,3.89-5.01,7.23-6.15,9.91-1.12,2.62-1.69,5.72-1.69,9.21,0,2.7.1,4.55.3,5.51.18.91.68,2.02,1.48,3.3,1,1.62,2.66,3.37,4.92,5.2,2.27,1.83,4.45,3.18,6.51,4.01.68.36,1.7.73,3.12,1.14,1.48.42,3.08.81,4.76,1.15,1.85.33,4.26.59,7.11.76,2.89.17,5.96.21,9.11.13,3.2-.09,6.44-.26,9.63-.52,3.18-.26,6.07-.65,8.59-1.16,10.26-1.9,20.95-4.82,31.81-8.68,10.87-3.87,21.8-8.49,32.49-13.75,10.68-5.26,21.12-11.24,31.03-17.77,9.91-6.53,19.05-13.51,27.15-20.73,15.99-14.45,29.29-29.58,39.52-44.96,10.21-15.35,17.22-31.13,20.83-46.9,1.91-8.53,2.71-16.8,2.4-24.58-.32-7.74-1.76-14.93-4.28-21.39-4.62-11.69-12.83-21.1-24.4-27.97-10.31-6.12-62.09-10.32-84.21-12.12-2.97-.24-5.53-.45-7.54-.62l.1-2.15,47.66.26v2.16s-20.12-.11-20.12-.11c25.18,2.27,56.94,5.82,65.22,10.73,11.99,7.12,20.5,16.89,25.31,29.04,2.62,6.69,4.11,14.12,4.43,22.09.32,7.97-.5,16.43-2.45,25.14-3.67,16.03-10.78,32.05-21.14,47.62-10.33,15.53-23.75,30.8-39.88,45.37-8.19,7.3-17.41,14.34-27.41,20.93-9.99,6.58-20.51,12.61-31.27,17.9-10.77,5.29-21.77,9.95-32.72,13.85-10.96,3.9-21.77,6.85-32.12,8.77-2.59.52-5.56.92-8.82,1.19-3.22.26-6.5.44-9.74.52-1.06.03-2.11.04-3.15.04Z"/>
  </g>
  <g>
    <g>
      <g>
        <path class="cls-1" d="M548.27,649.33c0,7.48-1.1,14.29-3.3,20.43-2.2,6.14-5.33,11.38-9.4,15.72-3.94,4.25-8.95,7.7-14.68,10.11-12,4.8-25.94,4.8-37.94,0-5.73-2.41-10.75-5.86-14.68-10.11-4.07-4.34-7.2-9.58-9.4-15.72-2.2-6.14-3.3-12.95-3.3-20.43s1.1-14.29,3.3-20.43c2.2-6.14,5.33-11.38,9.4-15.72,3.94-4.24,8.95-7.7,14.68-10.11,12-4.8,25.94-4.8,37.94,0,5.73,2.41,10.75,5.86,14.68,10.11,4.07,4.34,7.2,9.58,9.4,15.72,2.2,6.14,3.3,12.95,3.3,20.43ZM537.88,653.76c.05-6.98-.78-13.94-2.48-20.78-1.65-6.46-4.12-12.12-7.42-16.96-3.03-4.6-7.29-8.53-12.45-11.5-5-2.81-10.92-4.22-17.73-4.22-3.74,0-7.51.92-11.3,2.77-3.79,1.85-7.23,4.64-10.31,8.38-3.08,3.74-5.56,8.36-7.43,13.85-1.87,5.49-2.8,11.93-2.8,19.32-.04,6.98.79,13.94,2.47,20.78,1.65,6.55,4.12,12.26,7.42,17.1,3.05,4.62,7.34,8.58,12.54,11.56,5.06,2.86,10.94,4.29,17.65,4.29,4.03-.05,7.97-1.03,11.38-2.84,3.74-1.89,7.15-4.71,10.23-8.45,3.08-3.74,5.55-8.4,7.42-13.99,1.87-5.59,2.81-12.02,2.81-19.32Z"/>
        <path class="cls-1" d="M501.91,700.28c-6.61,0-13.21-1.23-19.37-3.69-5.85-2.46-11.05-6.04-15.07-10.38-4.15-4.42-7.39-9.84-9.63-16.09-2.23-6.23-3.36-13.22-3.36-20.79s1.13-14.57,3.36-20.79c2.24-6.25,5.48-11.66,9.63-16.09,4.02-4.33,9.22-7.91,15.05-10.37,12.33-4.93,26.45-4.94,38.76,0,5.85,2.46,11.06,6.04,15.07,10.38,4.15,4.43,7.39,9.84,9.63,16.09,2.23,6.23,3.36,13.22,3.36,20.79h0c0,7.56-1.13,14.56-3.36,20.79-2.24,6.25-5.48,11.67-9.63,16.09-4.01,4.33-9.22,7.91-15.06,10.37-6.17,2.47-12.78,3.7-19.39,3.7ZM481.33,604.98c-4.72,2.27-8.94,5.33-12.28,8.93-3.95,4.22-7.04,9.38-9.18,15.35-2.15,5.99-3.24,12.74-3.24,20.06s1.09,14.07,3.24,20.07c2.14,5.97,5.23,11.13,9.17,15.35,3.81,4.12,8.76,7.52,14.31,9.85,3.12,1.25,6.37,2.17,9.67,2.75-1.81-.64-3.54-1.42-5.17-2.34-5.32-3.06-9.78-7.17-12.91-11.91-3.34-4.91-5.9-10.78-7.57-17.43-1.7-6.91-2.54-13.99-2.51-21.05,0-7.47.96-14.08,2.86-19.66,1.9-5.59,4.46-10.36,7.62-14.19,1.85-2.25,3.85-4.19,5.98-5.79ZM497.79,601.38c-3.56,0-7.2.9-10.83,2.66-3.63,1.77-6.98,4.49-9.95,8.09-2.98,3.62-5.42,8.17-7.24,13.51-1.82,5.36-2.75,11.74-2.75,18.97-.04,6.89.78,13.79,2.44,20.52,1.61,6.4,4.06,12.04,7.27,16.76,2.95,4.47,7.16,8.35,12.18,11.24,4.87,2.75,10.63,4.15,17.11,4.15,3.85-.04,7.62-.98,10.88-2.71,3.61-1.83,6.93-4.58,9.9-8.18,2.98-3.62,5.41-8.21,7.23-13.64,1.83-5.45,2.75-11.84,2.75-18.98h0c.05-6.89-.78-13.79-2.44-20.52-1.61-6.31-4.06-11.9-7.27-16.62-2.93-4.45-7.11-8.3-12.1-11.17-4.81-2.7-10.6-4.08-17.2-4.08ZM538.96,653.76c0,7.37-.96,13.99-2.86,19.66-1.9,5.68-4.46,10.51-7.62,14.33-1.96,2.38-4.08,4.42-6.32,6.08,4.86-2.28,9.2-5.41,12.61-9.09,3.95-4.21,7.04-9.38,9.18-15.35,2.15-6,3.24-12.75,3.24-20.07h0c0-7.32-1.09-14.07-3.24-20.06-2.14-5.97-5.23-11.13-9.17-15.35-3.81-4.11-8.76-7.52-14.31-9.85-2.99-1.2-6.09-2.09-9.24-2.68,1.69.61,3.31,1.34,4.83,2.2,5.29,3.04,9.72,7.13,12.83,11.84,3.34,4.91,5.89,10.73,7.57,17.29,1.71,6.91,2.56,13.99,2.51,21.05Z"/>
      </g>
      <g>
        <path class="cls-1" d="M644.65,601.54c-.7.05-1.38.14-2.06.28-1.13.21-2.21.56-3.22,1.04-1.15.54-2.16,1.27-2.97,2.15-.9.99-1.37,2.22-1.32,3.46v58.45c0,6-.85,11.06-2.56,15.17-1.71,4.11-4.04,7.43-7.01,9.97-2.93,2.52-6.56,4.4-10.56,5.47-4.21,1.13-8.61,1.69-13.03,1.66-7.26,0-13.25-.88-17.98-2.63-4.73-1.75-8.44-4.02-11.14-6.78s-4.61-6.01-5.61-9.49c-1.04-3.51-1.57-7.11-1.57-10.73v-61.08c.05-1.25-.42-2.47-1.32-3.46-.81-.87-1.82-1.6-2.97-2.15-1.01-.48-2.09-.83-3.22-1.04-.68-.14-1.37-.23-2.06-.28l.33-.69h27.88l.33.69c-.7.05-1.38.14-2.06.28-1.13.21-2.21.56-3.22,1.04-1.15.54-2.16,1.27-2.97,2.15-.91.99-1.37,2.22-1.32,3.46v58.45c-.02,4.1.26,8.19.83,12.26.43,3.5,1.63,6.91,3.55,10.04,1.84,2.88,4.65,5.24,8.08,6.78,3.57,1.66,8.39,2.5,14.44,2.5,6.49,0,11.79-.95,15.92-2.84,3.96-1.77,7.35-4.31,9.9-7.41,2.49-3.08,4.23-6.54,5.12-10.18.92-3.67,1.39-7.4,1.4-11.15v-58.45c.05-1.25-.41-2.47-1.32-3.46-.81-.87-1.82-1.6-2.97-2.15-1.01-.48-2.09-.83-3.22-1.04-.68-.14-1.37-.23-2.06-.28l.33-.69h19.3l.33.69Z"/>
        <path class="cls-1" d="M602.22,700.27c-7.44.01-13.75-.89-18.64-2.7-4.86-1.8-8.74-4.17-11.54-7.04-2.8-2.88-4.83-6.32-5.87-9.94-1.07-3.59-1.61-7.31-1.61-11.03v-61.08c.04-1-.33-1.96-1.04-2.73-.72-.77-1.61-1.41-2.63-1.9-.93-.44-1.92-.76-2.95-.95-.65-.13-1.29-.22-1.94-.26l-1.58-.11,1.31-2.74h29.24l1.31,2.74-1.59.11c-.65.04-1.29.13-1.92.26-1.05.19-2.04.52-2.97.96-1.03.48-1.92,1.13-2.64,1.91-.71.77-1.07,1.72-1.03,2.68v58.49c-.02,4.03.26,8.1.82,12.11.42,3.38,1.56,6.61,3.4,9.63,1.72,2.7,4.35,4.9,7.6,6.36,3.43,1.6,8.13,2.4,13.99,2.4,6.3,0,11.51-.92,15.47-2.74,3.8-1.7,7.09-4.16,9.51-7.12,2.4-2.96,4.05-6.25,4.9-9.75.9-3.59,1.36-7.25,1.37-10.9v-58.44c.04-1.01-.32-1.96-1.03-2.73-.72-.77-1.61-1.41-2.63-1.9-.92-.44-1.92-.76-2.95-.95-.65-.13-1.29-.22-1.94-.26l-1.57-.11,1.29-2.74h20.67l1.31,2.74-1.59.11c-.65.04-1.29.13-1.92.26-1.05.2-2.04.52-2.97.96-1.03.48-1.92,1.13-2.64,1.91-.7.77-1.07,1.72-1.03,2.68v58.49c0,6.12-.89,11.36-2.64,15.58-1.76,4.25-4.22,7.74-7.31,10.38-3.04,2.61-6.84,4.58-10.98,5.69-4.22,1.13-8.6,1.7-13.02,1.7ZM561.9,601.93c1.23.6,2.31,1.38,3.2,2.34,1.1,1.21,1.67,2.71,1.61,4.24v61.03c0,3.52.51,7.02,1.52,10.42.94,3.3,2.79,6.42,5.35,9.04,2.57,2.64,6.18,4.84,10.74,6.53.03.01.05.02.08.03-2.43-1.53-4.45-3.49-5.9-5.78-2.01-3.3-3.26-6.82-3.71-10.49-.57-4.09-.85-8.26-.83-12.39v-58.44c-.07-1.48.5-2.99,1.6-4.19.9-.96,1.97-1.75,3.21-2.35h-16.86ZM630.53,601.93c1.24.6,2.31,1.38,3.2,2.34.38.41.69.86.94,1.33.25-.47.56-.91.94-1.32.9-.97,1.97-1.75,3.21-2.35h-8.29Z"/>
      </g>
      <g>
        <path class="cls-1" d="M677.94,696.83c.68.14,1.37.23,2.06.28l-.33.69h-27.88l-.33-.69c.7-.04,1.38-.14,2.06-.28,1.13-.21,2.21-.56,3.22-1.04,1.15-.54,2.16-1.27,2.97-2.15.91-.99,1.37-2.22,1.32-3.46v-81.72c.05-1.25-.42-2.47-1.32-3.46-.81-.87-1.82-1.6-2.97-2.15-1.01-.48-2.09-.83-3.22-1.04-.68-.14-1.37-.23-2.06-.28l.33-.69h27.88l.33.69c-.7.05-1.38.14-2.06.28-1.13.21-2.21.56-3.22,1.04-1.15.54-2.16,1.27-2.97,2.15-.91.99-1.37,2.22-1.32,3.46v81.71c-.05,1.25.41,2.47,1.32,3.46.81.87,1.82,1.6,2.97,2.15,1.01.48,2.09.83,3.22,1.04Z"/>
        <path class="cls-1" d="M680.35,698.88h-29.24l-1.31-2.75,1.59-.1c.65-.04,1.29-.13,1.92-.26,1.06-.2,2.05-.52,2.97-.95,1.03-.49,1.92-1.13,2.64-1.91.7-.77,1.07-1.73,1.03-2.68v-81.76c.04-1-.33-1.96-1.04-2.73-.72-.77-1.61-1.41-2.63-1.9-.93-.44-1.92-.76-2.95-.95-.65-.13-1.29-.22-1.94-.26l-1.58-.11,1.31-2.74h29.24l1.31,2.74-1.59.11c-.65.04-1.29.13-1.92.26-1.05.19-2.04.52-2.97.96-1.03.48-1.92,1.13-2.64,1.91-.71.77-1.07,1.72-1.03,2.68v81.76c-.04,1.01.32,1.96,1.03,2.73.71.77,1.6,1.41,2.64,1.9.92.44,1.92.76,2.95.95h.02c.63.13,1.27.22,1.92.26l1.59.1-1.31,2.75ZM657.3,696.72h16.86c-1.24-.6-2.32-1.39-3.2-2.34-1.1-1.2-1.67-2.71-1.61-4.24v-81.67c-.07-1.48.5-2.99,1.6-4.19.9-.96,1.97-1.75,3.21-2.35h-16.87c1.24.6,2.31,1.39,3.2,2.34,1.1,1.21,1.67,2.71,1.61,4.24v81.67c.06,1.49-.51,2.99-1.6,4.19-.89.96-1.97,1.75-3.21,2.35Z"/>
      </g>
      <g>
        <path class="cls-1" d="M780.81,649.33c0,7.48-1.1,14.29-3.3,20.43-2.2,6.14-5.33,11.38-9.4,15.72-3.94,4.25-8.95,7.7-14.68,10.11-12,4.8-25.94,4.8-37.94,0-5.73-2.41-10.75-5.86-14.68-10.11-4.07-4.34-7.2-9.58-9.4-15.72-2.2-6.14-3.3-12.95-3.3-20.43s1.1-14.29,3.3-20.43c2.2-6.14,5.34-11.38,9.4-15.72,3.94-4.24,8.95-7.7,14.68-10.11,12-4.8,25.94-4.8,37.94,0,5.73,2.41,10.75,5.86,14.68,10.11,4.07,4.34,7.2,9.58,9.4,15.72,2.2,6.14,3.3,12.95,3.3,20.43ZM770.42,653.76c.05-6.98-.78-13.94-2.47-20.78-1.65-6.46-4.12-12.12-7.42-16.96-3.03-4.6-7.29-8.53-12.46-11.5-5-2.81-10.91-4.22-17.73-4.22-3.74,0-7.51.92-11.3,2.77-3.8,1.85-7.23,4.64-10.31,8.38-3.08,3.74-5.55,8.36-7.42,13.85-1.87,5.49-2.81,11.93-2.81,19.32-.04,6.98.79,13.94,2.47,20.78,1.65,6.55,4.12,12.26,7.43,17.1,3.05,4.62,7.34,8.58,12.54,11.56,5.06,2.86,10.94,4.29,17.65,4.29,4.03-.05,7.97-1.03,11.38-2.84,3.74-1.89,7.15-4.71,10.23-8.45,3.08-3.74,5.55-8.4,7.42-13.99,1.87-5.59,2.81-12.02,2.81-19.32Z"/>
        <path class="cls-1" d="M734.45,700.28c-6.61,0-13.21-1.23-19.37-3.69-5.85-2.46-11.06-6.04-15.07-10.38-4.15-4.43-7.39-9.84-9.63-16.09-2.23-6.23-3.36-13.23-3.36-20.79s1.13-14.56,3.36-20.79c2.24-6.25,5.48-11.66,9.63-16.09,4.01-4.33,9.22-7.91,15.05-10.37,12.33-4.93,26.45-4.93,38.76,0,5.85,2.46,11.06,6.05,15.07,10.38,4.15,4.43,7.39,9.84,9.63,16.09,2.23,6.23,3.36,13.23,3.36,20.79h0c0,7.57-1.13,14.56-3.36,20.79-2.24,6.25-5.48,11.66-9.63,16.09-4.01,4.33-9.22,7.91-15.05,10.37-6.17,2.47-12.78,3.7-19.39,3.7ZM713.87,604.98c-4.72,2.27-8.94,5.33-12.28,8.93-3.95,4.22-7.04,9.38-9.18,15.35-2.15,5.99-3.24,12.75-3.24,20.06s1.09,14.07,3.24,20.07c2.14,5.97,5.23,11.13,9.18,15.35,3.81,4.11,8.76,7.52,14.31,9.85,3.12,1.25,6.37,2.17,9.67,2.75-1.81-.64-3.54-1.42-5.17-2.34-5.32-3.06-9.78-7.17-12.91-11.91-3.35-4.92-5.9-10.79-7.57-17.43-1.7-6.92-2.54-14-2.51-21.05,0-7.46.96-14.08,2.86-19.66,1.91-5.59,4.47-10.37,7.61-14.19,1.85-2.25,3.85-4.19,5.98-5.78ZM730.33,601.38c-3.56,0-7.2.9-10.83,2.66-3.64,1.77-6.98,4.49-9.95,8.09-2.98,3.62-5.41,8.17-7.23,13.51-1.82,5.36-2.75,11.74-2.75,18.97-.04,6.88.78,13.78,2.44,20.52,1.61,6.4,4.06,12.03,7.27,16.75,2.95,4.47,7.16,8.35,12.18,11.24,4.87,2.75,10.63,4.15,17.11,4.15,3.85-.04,7.62-.98,10.88-2.71,3.61-1.83,6.93-4.58,9.9-8.18,2.98-3.62,5.41-8.21,7.23-13.64,1.83-5.45,2.75-11.84,2.75-18.98h0c.05-6.89-.77-13.79-2.44-20.52-1.61-6.31-4.06-11.9-7.27-16.62-2.93-4.45-7.11-8.3-12.1-11.17-4.81-2.7-10.6-4.08-17.2-4.08ZM771.5,653.76c0,7.37-.96,13.99-2.86,19.66-1.9,5.68-4.46,10.51-7.62,14.33-1.96,2.38-4.08,4.42-6.32,6.08,4.86-2.28,9.2-5.41,12.62-9.1,3.95-4.22,7.04-9.38,9.18-15.35,2.15-6,3.24-12.75,3.24-20.07h0c0-7.32-1.09-14.07-3.24-20.06-2.14-5.97-5.22-11.13-9.17-15.35-3.81-4.11-8.76-7.52-14.31-9.85-2.99-1.2-6.09-2.09-9.25-2.68,1.69.61,3.31,1.34,4.83,2.2,5.29,3.04,9.72,7.13,12.83,11.84,3.34,4.91,5.89,10.73,7.57,17.29,1.71,6.91,2.56,13.99,2.51,21.05Z"/>
      </g>
      <g>
        <path class="cls-1" d="M877.2,601.54c-.69.05-1.38.14-2.06.28-1.13.21-2.21.56-3.22,1.04-1.15.54-2.16,1.27-2.97,2.15-.91.99-1.37,2.22-1.32,3.46v58.45c0,6-.85,11.06-2.56,15.17-1.71,4.11-4.04,7.43-7.01,9.97-2.93,2.52-6.56,4.4-10.56,5.47-4.21,1.13-8.61,1.69-13.03,1.66-7.26,0-13.25-.88-17.98-2.63-4.73-1.75-8.44-4.02-11.13-6.78-2.7-2.77-4.61-6.01-5.61-9.49-1.04-3.51-1.57-7.11-1.57-10.73v-61.08c.05-1.25-.42-2.47-1.32-3.46-.81-.87-1.82-1.6-2.97-2.15-1.01-.48-2.09-.83-3.22-1.04-.68-.14-1.37-.23-2.06-.28l.33-.69h27.88l.33.69c-.69.05-1.38.14-2.06.28-1.13.21-2.21.56-3.22,1.04-1.15.54-2.16,1.27-2.97,2.15-.91.99-1.37,2.22-1.32,3.46v58.45c-.02,4.1.26,8.19.82,12.26.43,3.5,1.63,6.91,3.55,10.04,1.84,2.88,4.65,5.24,8.08,6.78,3.57,1.66,8.39,2.5,14.44,2.5,6.49,0,11.79-.95,15.92-2.84,3.96-1.77,7.35-4.31,9.9-7.41,2.49-3.08,4.23-6.54,5.12-10.18.92-3.67,1.39-7.4,1.4-11.15v-58.45c.05-1.25-.41-2.47-1.32-3.46-.81-.87-1.82-1.6-2.97-2.15-1.01-.48-2.09-.83-3.22-1.04-.68-.14-1.37-.23-2.06-.28l.33-.69h19.3l.33.69Z"/>
        <path class="cls-1" d="M834.76,700.27c-7.43.06-13.75-.89-18.65-2.7-4.86-1.8-8.74-4.17-11.53-7.04-2.8-2.88-4.83-6.32-5.87-9.94-1.07-3.59-1.61-7.31-1.61-11.03v-61.08c.04-1-.33-1.96-1.04-2.73-.72-.77-1.61-1.41-2.63-1.9-.93-.44-1.92-.76-2.95-.95-.65-.13-1.29-.22-1.94-.26l-1.58-.11,1.31-2.74h29.24l1.3,2.74-1.58.11c-.64.04-1.29.13-1.92.26-1.05.2-2.04.52-2.97.96-1.03.48-1.92,1.13-2.64,1.91-.71.77-1.07,1.72-1.03,2.68v58.49c-.02,4.03.26,8.1.81,12.11.42,3.38,1.56,6.62,3.4,9.63,1.72,2.7,4.35,4.9,7.6,6.36,3.43,1.6,8.13,2.4,13.99,2.4,6.3,0,11.51-.92,15.47-2.74,3.8-1.7,7.09-4.16,9.51-7.12,2.39-2.96,4.04-6.24,4.9-9.75.9-3.59,1.36-7.25,1.37-10.9v-58.44c.04-1.01-.32-1.96-1.03-2.73-.72-.77-1.61-1.41-2.64-1.9-.92-.44-1.92-.76-2.95-.95-.65-.13-1.29-.22-1.94-.26l-1.58-.11,1.3-2.74h20.66l1.3,2.74-1.58.11c-.64.04-1.29.13-1.92.26-1.05.2-2.04.52-2.97.96-1.03.48-1.92,1.13-2.64,1.91-.7.77-1.07,1.72-1.03,2.68v58.49c0,6.12-.89,11.36-2.64,15.58-1.76,4.25-4.22,7.74-7.31,10.38-3.04,2.62-6.84,4.58-10.98,5.69-4.21,1.13-8.6,1.7-13.02,1.7ZM794.45,601.93c1.23.6,2.31,1.38,3.2,2.34,1.1,1.21,1.67,2.71,1.61,4.24v61.03c0,3.52.51,7.02,1.52,10.42.94,3.3,2.79,6.42,5.35,9.04,2.57,2.64,6.18,4.84,10.74,6.53.03.01.05.02.08.03-2.43-1.53-4.45-3.49-5.91-5.78-2.01-3.29-3.25-6.82-3.71-10.49-.57-4.1-.85-8.27-.83-12.4v-58.44c-.07-1.48.5-2.99,1.6-4.19.9-.96,1.97-1.75,3.21-2.35h-16.86ZM863.07,601.93c1.23.6,2.31,1.38,3.2,2.34.38.42.69.86.94,1.33.25-.47.56-.91.94-1.33.9-.96,1.97-1.75,3.21-2.35h-8.29Z"/>
      </g>
    </g>
    <g>
      <g>
        <path class="cls-1" d="M607.56,532.2l-.33.69-18.64-.14v-26.31c-1.32,2.68-2.94,5.63-4.86,8.86-1.86,3.13-3.95,6.16-6.27,9.07-2.05,2.62-4.52,5-7.34,7.06-2.64,1.89-5.39,2.84-8.25,2.84-4.51,0-7.95-.81-10.31-2.43-2.37-1.62-4.12-3.78-5.03-6.23-1.03-2.74-1.59-5.58-1.65-8.45-.11-3.09-.16-6.12-.16-9.07l19.8-12.46,23.92-14.96c-.09-2.37-.43-4.74-.99-7.06-.47-2.04-1.34-4.01-2.56-5.82-1.11-1.62-2.67-3-4.54-4.02-2.08-1.06-4.49-1.59-6.93-1.52-2.53,0-4.87,1.04-7.01,3.12-2.31,2.34-3.97,5.09-4.87,8.03-1.13,3.52-1.52,7.17-1.16,10.8.36,4.02,1.77,7.92,4.12,11.43l-13.53-18.56c.99-1.71,2.12-3.35,3.38-4.92,3.34-4.19,8.03-7.51,13.53-9.56,3.3-1.2,6.88-1.79,10.48-1.73,6.93,0,11.93,1.76,15.01,5.27,3.08,3.51,4.62,8.4,4.62,14.68v44.46c-.05,1.25.41,2.47,1.32,3.46.81.87,1.82,1.6,2.97,2.15,1.01.48,2.09.83,3.22,1.04.68.14,1.37.23,2.06.28ZM588.59,481.64l-34.81,22.3c0,.92-.06,2.28-.17,4.08-.11,1.8-.14,3.79-.08,5.96s.22,4.39.5,6.65c.24,2.11.71,4.19,1.4,6.23.54,1.69,1.49,3.28,2.81,4.64,1.18,1.19,2.94,1.85,4.78,1.8,2.42,0,4.89-1.06,7.42-3.19,2.74-2.35,5.15-4.95,7.18-7.75,2.28-3.09,4.37-6.28,6.27-9.56,1.93-3.32,3.49-6.19,4.7-8.59v-22.58Z"/>
        <path class="cls-1" d="M561.86,535.35c-4.71,0-8.39-.88-10.92-2.61-2.56-1.75-4.44-4.08-5.43-6.74-1.07-2.85-1.65-5.81-1.72-8.8-.11-3.02-.16-6.08-.16-9.09v-.6l19.32-12.17-13.26-18.19.35-.61c1-1.74,2.17-3.44,3.48-5.05,3.47-4.35,8.31-7.77,13.99-9.89,3.46-1.26,7.14-1.84,10.87-1.8,7.2,0,12.53,1.89,15.81,5.63,3.24,3.69,4.89,8.87,4.89,15.39v44.46c-.04,1.01.32,1.96,1.03,2.73.71.77,1.6,1.41,2.64,1.9.93.44,1.92.76,2.95.95.65.13,1.29.22,1.94.26l1.59.1-1.32,2.75-20.4-.15v-22.98c-.87,1.6-1.83,3.27-2.86,5.01-1.88,3.17-4.02,6.26-6.35,9.19-2.11,2.7-4.65,5.14-7.55,7.26-2.82,2.03-5.81,3.05-8.88,3.05ZM545.78,508.69c0,2.79.06,5.63.16,8.44.06,2.76.59,5.48,1.58,8.11.84,2.25,2.44,4.22,4.63,5.72,1.52,1.04,3.59,1.72,6.16,2.04-.31-.22-.59-.47-.86-.73-1.45-1.5-2.47-3.2-3.07-5.07-.71-2.08-1.2-4.25-1.45-6.44-.28-2.27-.44-4.54-.5-6.74-.05-2.17-.03-4.2.08-6.05.09-1.53.15-2.73.16-3.62l-6.91,4.35ZM554.85,504.54c-.02.9-.07,2.08-.16,3.56-.11,1.79-.13,3.76-.08,5.86.05,2.13.22,4.34.49,6.54.23,2.04.69,4.06,1.35,6.02.5,1.57,1.36,2.99,2.56,4.24.95.96,2.45,1.54,3.98,1.47,2.18,0,4.44-.99,6.76-2.93,2.66-2.28,5.02-4.83,7-7.56,2.26-3.06,4.34-6.24,6.21-9.47,1.84-3.17,3.37-5.96,4.56-8.3v-20.35s-32.65,20.92-32.65,20.92ZM589.66,531.68l11.97.09c-1.2-.59-2.25-1.37-3.12-2.3-1.1-1.2-1.67-2.71-1.61-4.24v-44.41c0-5.98-1.46-10.68-4.35-13.97-2.79-3.18-7.44-4.83-13.81-4.9.71.24,1.41.52,2.08.87,2.04,1.11,3.74,2.61,4.94,4.37,1.3,1.93,2.21,4.01,2.72,6.18.51,2.11.84,4.28.98,6.43l.21-.13v22.15s0,0,0,0v29.87ZM573.85,463.33c-.14,0-.27,0-.41,0-2.29,0-4.34.92-6.29,2.81-2.15,2.19-3.75,4.81-4.58,7.57-1.09,3.4-1.46,6.89-1.11,10.38.31,3.48,1.48,6.94,3.38,10.05l22.48-14.06c-.12-2.08-.43-4.18-.93-6.23-.44-1.93-1.25-3.76-2.4-5.47-1-1.47-2.44-2.74-4.16-3.67-1.79-.91-3.85-1.4-5.97-1.4ZM552.26,477.01l7.5,10.29c-.22-.99-.37-2-.46-3-.38-3.77.03-7.56,1.2-11.23.91-3,2.62-5.85,4.93-8.26-4.1,1.97-7.6,4.7-10.24,8.02-1.08,1.35-2.07,2.75-2.94,4.18Z"/>
      </g>
      <g>
        <path class="cls-1" d="M674.89,462.95c-.72.05-1.44.14-2.14.28-1.21.21-2.37.56-3.47,1.04-1.26.54-2.45,1.19-3.55,1.94-1.15.78-2.04,1.81-2.56,2.98l-19.47,63.71c-1.76,4.06-3.52,7.78-5.28,11.15-1.55,3.05-3.43,5.97-5.61,8.73-1.71,2.21-3.86,4.15-6.35,5.75-2.11,1.34-4.69,2.07-7.34,2.08-4.73,0-8.19-1.02-10.39-3.05-2.2-2.03-3.3-4.25-3.3-6.65-.09-2.18.76-4.32,2.39-6.03,1.6-1.61,3.49-2.42,5.69-2.42,1.5.02,2.95.46,4.12,1.25-1.43,0-2.5.62-3.21,1.87-.72,1.27-1.01,2.69-.82,4.09.17,1.49.86,2.91,1.98,4.08,1.16,1.25,2.89,1.87,5.2,1.87,1.38-.01,2.77-.13,4.12-.35,1.54-.23,3.27-1.04,5.2-2.42,1.92-1.38,3.96-3.63,6.1-6.72,2.14-3.09,4.37-7.5,6.68-13.23h-5.78l-20.29-63.57c-.39-1.32-1.26-2.5-2.48-3.39-1.1-.82-2.35-1.47-3.71-1.94-1.14-.39-2.33-.67-3.55-.83-.71-.1-1.43-.17-2.14-.21l.33-.69h28.7l.33.69c-.33,0-.96.05-1.9.14-.97.1-1.92.34-2.81.69-.97.39-1.77,1.02-2.31,1.8-.61.83-.74,1.94-.41,3.32l18.15,56.92,17.15-56.23c.33-1.38.19-2.51-.41-3.39-.53-.81-1.3-1.5-2.23-2.01-.84-.44-1.76-.77-2.72-.97-.62-.14-1.26-.23-1.9-.28l.33-.69h19.3l.33.69Z"/>
        <path class="cls-1" d="M619.13,561.67c-4.99,0-8.73-1.12-11.13-3.33-2.42-2.23-3.65-4.74-3.65-7.44-.1-2.43.86-4.86,2.69-6.77,1.81-1.83,3.98-2.75,6.47-2.75,1.72.02,3.39.53,4.73,1.43l2.93,1.97h-3.53c-1.04,0-1.76.42-2.28,1.33-.6,1.06-.84,2.24-.69,3.41.15,1.28.73,2.48,1.69,3.48.95,1.02,2.43,1.54,4.42,1.54,1.32-.01,2.65-.13,3.96-.33,1.37-.21,2.96-.96,4.74-2.23,1.81-1.3,3.78-3.48,5.85-6.46,1.9-2.75,3.91-6.62,5.96-11.53h-4.95l-20.53-64.32c-.33-1.12-1.05-2.1-2.08-2.85-1.02-.76-2.17-1.36-3.43-1.79-1.07-.36-2.2-.63-3.34-.78-.69-.1-1.37-.16-2.05-.2l-1.61-.08,1.31-2.77h30.07l1.36,2.85h-1.71c-.31,0-.91.05-1.79.13-.87.09-1.72.3-2.51.62-.77.31-1.4.8-1.82,1.41-.43.59-.51,1.38-.25,2.46l17.07,53.55,16.14-52.92c.24-1.02.16-1.85-.27-2.47-.45-.68-1.08-1.25-1.85-1.67-.74-.39-1.55-.68-2.42-.86-.58-.13-1.16-.22-1.76-.26l-1.58-.11,1.3-2.74h20.66l1.3,2.74-1.58.11c-.67.04-1.35.13-2.01.26-1.14.2-2.22.53-3.24.97-1.2.51-2.32,1.13-3.37,1.84-.99.67-1.74,1.55-2.18,2.53l-19.42,63.58c-1.81,4.18-3.59,7.95-5.35,11.33-1.58,3.09-3.5,6.09-5.72,8.9-1.79,2.3-4.01,4.32-6.62,5.99-2.27,1.45-5.09,2.24-7.92,2.25ZM613.5,543.53c-1.9,0-3.51.69-4.91,2.1-1.41,1.48-2.16,3.34-2.08,5.22,0,2.15.97,4.07,2.95,5.9,1.98,1.83,5.23,2.76,9.66,2.76,2.43,0,4.83-.68,6.76-1.91,1.65-1.06,3.13-2.27,4.43-3.61-1.9,1.31-3.67,2.09-5.26,2.33-1.4.22-2.84.34-4.27.36-2.62,0-4.63-.75-6-2.22-1.28-1.33-2.06-2.96-2.26-4.69-.21-1.62.12-3.27.96-4.74.32-.56.71-1.02,1.15-1.39-.37-.07-.75-.1-1.14-.11ZM637.9,531.81h5.02l1.41-4.63-18.48-57.95c-.43-1.78-.23-3.2.57-4.29.43-.63,1.01-1.17,1.69-1.61h-16.16c1.09.46,2.11,1.04,3.04,1.72,1.41,1.03,2.4,2.4,2.87,3.95l20.04,62.8ZM660.22,463.33c1.01.59,1.86,1.37,2.45,2.27.28.42.49.87.62,1.37.52-.64,1.13-1.2,1.83-1.67,1.11-.76,2.31-1.42,3.58-1.97h-8.48Z"/>
      </g>
      <g>
        <path class="cls-1" d="M732.67,523.61l.66.55c-2.85,3.15-6.51,5.71-10.72,7.48-8.88,3.48-19.14,3.51-28.04.07-4.18-1.71-7.85-4.2-10.72-7.27-3.15-3.43-5.5-7.33-6.93-11.5-1.71-4.9-2.55-9.99-2.47-15.1-.07-5.13.77-10.24,2.47-15.17,1.44-4.22,3.79-8.19,6.93-11.7,9.3-10.25,26.13-13.25,39.59-7.06,4.54,2.14,8.39,5.19,11.22,8.86l-4.95,43.76c0-8.86-.66-16.69-1.98-23.48-1.32-6.78-3.11-12.51-5.36-17.17-2.25-4.66-4.89-8.19-7.92-10.6s-6.24-3.6-9.65-3.6c-2.61.02-5.16.67-7.34,1.87-2.36,1.25-4.48,3.16-6.35,5.75-1.87,2.58-3.38,5.86-4.54,9.83-1.16,3.97-1.73,8.68-1.73,14.13-.04,5.11.49,10.21,1.57,15.23.87,4.28,2.54,8.42,4.95,12.26,2.04,3.26,5.01,6.05,8.66,8.1,3.52,1.94,7.81,2.91,12.87,2.91,1.81-.02,3.61-.23,5.36-.62,1.92-.42,3.8-.97,5.61-1.66,1.79-.68,3.48-1.54,5.03-2.57,1.46-.94,2.74-2.06,3.79-3.32Z"/>
        <path class="cls-1" d="M708.48,535.36c-4.88,0-9.76-.88-14.31-2.64-4.32-1.77-8.16-4.37-11.12-7.54-3.27-3.56-5.68-7.56-7.16-11.88-1.75-5.01-2.61-10.22-2.53-15.46-.07-5.22.78-10.45,2.53-15.51,1.49-4.37,3.9-8.43,7.15-12.07,9.69-10.68,26.86-13.75,40.85-7.33,4.69,2.21,8.7,5.39,11.62,9.19l.27.35-5,44.2-2.15-.12c0-8.75-.66-16.58-1.96-23.27-1.3-6.66-3.07-12.35-5.27-16.91-2.17-4.49-4.74-7.93-7.62-10.22-2.82-2.23-5.84-3.37-8.98-3.37-2.43.02-4.79.62-6.82,1.74-2.22,1.17-4.23,3-6,5.43-1.79,2.47-3.26,5.67-4.37,9.5-1.12,3.85-1.69,8.5-1.69,13.82-.04,5.02.48,10.07,1.54,15.01.85,4.17,2.46,8.17,4.81,11.91,1.93,3.1,4.8,5.78,8.27,7.74,3.33,1.84,7.48,2.77,12.34,2.77,1.73-.02,3.45-.22,5.12-.6,1.87-.4,3.7-.95,5.47-1.62,1.72-.65,3.34-1.48,4.82-2.46,1.37-.89,2.57-1.93,3.56-3.12l.69-.83,2.35,1.96-.75.83c-2.94,3.25-6.78,5.93-11.11,7.75-4.62,1.81-9.58,2.72-14.54,2.72ZM693.09,465.39c-3.21,1.6-6.1,3.71-8.45,6.31-3.05,3.41-5.31,7.22-6.71,11.32-1.67,4.82-2.48,9.8-2.42,14.8-.07,5.02.74,9.97,2.41,14.75,1.39,4.04,3.64,7.79,6.71,11.12,2.74,2.94,6.32,5.36,10.34,7,5.94,2.3,12.49,3.01,18.81,2.12-.3.01-.6.02-.9.03-5.23,0-9.73-1.02-13.4-3.04-3.8-2.14-6.93-5.07-9.05-8.48-2.48-3.96-4.2-8.2-5.09-12.61-1.09-5.08-1.63-10.29-1.59-15.46,0-5.52.6-10.37,1.77-14.42,1.19-4.08,2.77-7.49,4.7-10.17.9-1.24,1.85-2.34,2.87-3.29ZM710.89,461.9c1.45.63,2.86,1.48,4.22,2.56,3.14,2.49,5.91,6.18,8.22,10.97,2.28,4.73,4.11,10.6,5.45,17.44.6,3.07,1.06,6.37,1.39,9.89l3.35-29.66c-2.69-3.38-6.33-6.21-10.56-8.21-3.81-1.75-7.93-2.73-12.08-3Z"/>
      </g>
      <g>
        <path class="cls-1" d="M808.58,532.2l-.33.69-18.64-.14v-26.31c-1.32,2.68-2.94,5.63-4.86,8.86-1.86,3.13-3.95,6.16-6.27,9.07-2.05,2.62-4.52,5-7.34,7.06-2.64,1.89-5.39,2.84-8.25,2.84-4.51,0-7.95-.81-10.31-2.43-2.37-1.62-4.12-3.78-5.03-6.23-1.03-2.74-1.59-5.58-1.65-8.45-.11-3.09-.16-6.12-.16-9.07l19.8-12.46,23.92-14.96c-.09-2.37-.43-4.74-.99-7.06-.47-2.04-1.34-4.01-2.56-5.82-1.11-1.62-2.67-3-4.54-4.02-2.08-1.06-4.49-1.59-6.93-1.52-2.53,0-4.87,1.04-7.01,3.12-2.31,2.34-3.97,5.09-4.87,8.03-1.13,3.52-1.52,7.17-1.16,10.8.36,4.02,1.77,7.92,4.12,11.43l-13.53-18.56c.99-1.71,2.12-3.35,3.38-4.92,3.34-4.19,8.03-7.51,13.53-9.56,3.3-1.2,6.88-1.79,10.48-1.73,6.93,0,11.93,1.76,15.01,5.27,3.08,3.51,4.62,8.4,4.62,14.68v44.46c-.05,1.25.41,2.47,1.32,3.46.81.87,1.82,1.6,2.97,2.15,1.01.48,2.09.83,3.22,1.04.68.14,1.37.23,2.06.28ZM789.61,481.64l-34.81,22.3c0,.92-.06,2.28-.17,4.08-.11,1.8-.14,3.79-.08,5.96s.22,4.39.5,6.65c.24,2.11.71,4.19,1.4,6.23.54,1.69,1.49,3.28,2.81,4.64,1.18,1.19,2.94,1.85,4.78,1.8,2.42,0,4.89-1.06,7.42-3.19,2.74-2.35,5.15-4.95,7.18-7.75,2.28-3.09,4.37-6.28,6.27-9.56,1.93-3.32,3.49-6.19,4.7-8.59v-22.58Z"/>
        <path class="cls-1" d="M762.88,535.35c-4.71,0-8.39-.88-10.92-2.61-2.56-1.75-4.44-4.08-5.43-6.74-1.07-2.85-1.65-5.81-1.72-8.8-.11-3.02-.16-6.08-.16-9.09v-.6l19.32-12.17-13.26-18.19.35-.61c1-1.74,2.17-3.44,3.48-5.05,3.47-4.35,8.31-7.77,13.99-9.89,3.46-1.26,7.13-1.84,10.87-1.8,7.2,0,12.53,1.89,15.81,5.63,3.24,3.69,4.89,8.87,4.89,15.39v44.46c-.04,1.01.32,1.96,1.03,2.73.71.77,1.6,1.41,2.64,1.9.93.44,1.92.76,2.95.95.65.13,1.29.22,1.94.26l1.59.1-1.32,2.75-20.4-.15v-22.98c-.87,1.6-1.83,3.27-2.86,5.01-1.88,3.17-4.02,6.26-6.35,9.19-2.11,2.7-4.65,5.14-7.55,7.26-2.82,2.03-5.81,3.05-8.88,3.05ZM746.81,508.69c0,2.79.06,5.63.16,8.44.06,2.76.59,5.48,1.58,8.11.84,2.25,2.44,4.22,4.63,5.72,1.52,1.04,3.59,1.72,6.16,2.04-.31-.22-.59-.47-.86-.73-1.45-1.5-2.47-3.2-3.07-5.07-.71-2.08-1.2-4.25-1.45-6.44-.28-2.27-.44-4.54-.5-6.74-.05-2.17-.03-4.2.08-6.05.09-1.53.15-2.73.16-3.62l-6.91,4.35ZM755.87,504.54c-.02.9-.07,2.08-.16,3.56-.11,1.79-.13,3.76-.08,5.86.05,2.13.22,4.34.49,6.54.23,2.04.69,4.06,1.35,6.02.5,1.57,1.36,2.99,2.56,4.24.95.96,2.44,1.54,3.98,1.47,2.18,0,4.44-.99,6.76-2.93,2.66-2.28,5.02-4.83,7-7.56,2.26-3.06,4.34-6.24,6.21-9.47,1.84-3.17,3.37-5.96,4.56-8.3v-20.35s-32.65,20.92-32.65,20.92ZM790.69,531.68l11.97.09c-1.2-.59-2.25-1.37-3.12-2.3-1.1-1.2-1.67-2.71-1.61-4.24v-44.41c0-5.98-1.46-10.68-4.35-13.97-2.79-3.18-7.44-4.83-13.81-4.9.71.24,1.41.52,2.08.87,2.04,1.11,3.74,2.61,4.94,4.37,1.3,1.93,2.21,4.01,2.72,6.18.51,2.11.84,4.28.98,6.43l.21-.13v22.15s0,0,0,0v29.87ZM774.87,463.33c-.14,0-.27,0-.41,0-2.29,0-4.34.92-6.29,2.81-2.15,2.19-3.75,4.81-4.58,7.57-1.09,3.4-1.46,6.89-1.11,10.38.31,3.48,1.48,6.94,3.38,10.05l22.48-14.06c-.12-2.08-.43-4.18-.93-6.23-.44-1.93-1.25-3.76-2.4-5.47-1-1.47-2.44-2.74-4.16-3.67-1.79-.91-3.85-1.4-5.97-1.4ZM753.28,477.01l7.5,10.29c-.22-.99-.37-2-.46-3-.38-3.77.03-7.56,1.2-11.23.91-3,2.62-5.85,4.93-8.26-4.1,1.97-7.6,4.7-10.24,8.02-1.08,1.35-2.07,2.75-2.94,4.18Z"/>
      </g>
      <g>
        <path class="cls-1" d="M842.59,532.2l-.33.69h-27.88l-.33-.69c.7-.04,1.38-.14,2.06-.28,1.13-.21,2.21-.56,3.22-1.04,1.15-.54,2.16-1.28,2.97-2.15.9-.99,1.37-2.21,1.32-3.46v-81.72c.05-1.25-.42-2.47-1.32-3.46-.81-.87-1.82-1.6-2.97-2.15-1.01-.48-2.09-.82-3.22-1.04-.68-.14-1.37-.23-2.06-.28l.33-.69h18.64v89.33c-.05,1.25.41,2.47,1.32,3.46.81.87,1.82,1.6,2.97,2.15,1.01.48,2.09.83,3.22,1.04.68.14,1.37.23,2.06.28Z"/>
        <path class="cls-1" d="M842.94,533.97h-29.24l-1.31-2.75,1.59-.1c.64-.04,1.29-.13,1.91-.26,1.06-.2,2.06-.52,2.97-.95,1.03-.49,1.92-1.13,2.64-1.91.7-.77,1.07-1.72,1.03-2.68v-81.76c.04-1-.33-1.96-1.04-2.73-.72-.77-1.61-1.41-2.64-1.9-.91-.43-1.91-.75-2.95-.95-.64-.13-1.29-.22-1.93-.26l-1.59-.11,1.31-2.74h20.4v90.41c-.04,1.01.32,1.96,1.03,2.73.71.77,1.6,1.41,2.64,1.9.93.44,1.92.76,2.95.95.65.13,1.29.22,1.94.26l1.59.1-1.31,2.75ZM819.89,531.81h16.86c-1.24-.6-2.32-1.39-3.2-2.34-1.1-1.2-1.67-2.71-1.61-4.24v-88.21h-12.06c1.24.6,2.32,1.39,3.2,2.34,1.1,1.21,1.67,2.71,1.61,4.24v81.67c.06,1.48-.51,2.99-1.6,4.19-.89.96-1.97,1.75-3.2,2.35Z"/>
      </g>
    </g>
  </g>
</svg>